<svg width="125" height="125" viewBox="0 0 125 125" fill="none" xmlns="http://www.w3.org/2000/svg">
<path d="M98.9583 20.8333H26.0417C23.279 20.8333 20.6295 21.9307 18.676 23.8842C16.7225 25.8377 15.625 28.4872 15.625 31.2499V93.7499C15.625 96.5126 16.7225 99.1621 18.676 101.116C20.6295 103.069 23.279 104.167 26.0417 104.167H98.9583C104.688 104.167 109.375 99.4791 109.375 93.7499V31.2499C109.375 25.5208 104.688 20.8333 98.9583 20.8333ZM57.2917 78.1249H49.4792V67.7083H39.0625V78.1249H31.25V46.8749H39.0625V59.8958H49.4792V46.8749H57.2917V78.1249ZM93.75 72.9166C93.75 75.7812 91.4062 78.1249 88.5417 78.1249H84.6354V85.9374H76.8229V78.1249H72.9167C70.0521 78.1249 67.7083 75.7812 67.7083 72.9166V52.0833C67.7083 49.2187 70.0521 46.8749 72.9167 46.8749H88.5417C91.4062 46.8749 93.75 49.2187 93.75 52.0833V72.9166ZM75.5208 70.3124H85.9375V54.6874H75.5208V70.3124Z" fill="white"/>
</svg>
