<svg width="125" height="125" viewBox="0 0 125 125" fill="none" xmlns="http://www.w3.org/2000/svg">
<path d="M101.354 52.0834C100.84 52.8426 100.536 53.7241 100.472 54.6386C100.408 55.5531 100.587 56.4683 100.99 57.2917C102.282 60.3087 103.192 63.4757 103.698 66.7188C105.039 75.105 103.785 83.7006 100.104 91.3542C99.6572 92.1937 98.9889 92.8948 98.1717 93.3814C97.3546 93.868 96.4198 94.1216 95.4688 94.1146H29.5833C28.6269 94.1166 27.6884 93.8552 26.8708 93.3591C26.0531 92.863 25.3878 92.1514 24.9479 91.3021C21.6139 84.5388 20.1778 76.9975 20.7926 69.4822C21.4074 61.9668 24.0501 54.7592 28.439 48.6276C32.8278 42.4961 38.7983 37.6704 45.714 34.6651C52.6296 31.6598 60.2312 30.5875 67.7083 31.5626C71.4916 32.0072 75.1921 32.9893 78.6979 34.4792C79.5213 34.8822 80.4366 35.0607 81.3511 34.9967C82.2656 34.9327 83.147 34.6284 83.9062 34.1146C84.6973 33.5935 85.3312 32.8665 85.7398 32.0119C86.1484 31.1573 86.3162 30.2074 86.2251 29.2646C86.1341 28.3217 85.7876 27.4215 85.223 26.6609C84.6583 25.9003 83.897 25.3081 83.0208 24.948C72.9593 20.6337 61.7942 19.5995 51.1115 21.9922C40.4287 24.385 30.7716 30.0831 23.5117 38.277C16.2519 46.471 11.7586 56.7442 10.67 67.6374C9.58149 78.5306 11.9531 89.4899 17.4479 98.9584C18.3568 100.533 19.6619 101.842 21.2335 102.756C22.8051 103.669 24.5884 104.156 26.4062 104.167H98.5417C100.377 104.174 102.182 103.696 103.773 102.782C105.365 101.867 106.686 100.548 107.604 98.9584C111.627 91.9867 113.979 84.1776 114.476 76.1439C114.973 68.1102 113.602 60.0707 110.469 52.6563C110.072 51.8113 109.455 51.0885 108.683 50.5635C107.912 50.0384 107.013 49.7306 106.081 49.672C105.149 49.6134 104.219 49.8063 103.387 50.2306C102.556 50.6548 101.854 51.2947 101.354 52.0834Z" fill="white"/>
<path d="M55.1562 65.5729C53.2017 67.5275 52.1036 70.1785 52.1036 72.9427C52.1036 74.3114 52.3732 75.6667 52.8969 76.9312C53.4207 78.1957 54.1884 79.3447 55.1562 80.3125C56.1241 81.2803 57.273 82.048 58.5375 82.5718C59.802 83.0956 61.1573 83.3652 62.526 83.3652C65.2902 83.3652 67.9412 82.2671 69.8958 80.3125L99.375 36.0938L55.1562 65.5729Z" fill="white"/>
</svg>
