<svg width="480" height="535" viewBox="0 0 480 535" fill="none" xmlns="http://www.w3.org/2000/svg">
<g filter="url(#filter0_d_24_47)">
<circle cx="239.5" cy="291.666" r="234.5" fill="url(#paint0_linear_24_47)" fill-opacity="0.7" shape-rendering="crispEdges"/>
</g>
<circle cx="240" cy="292.166" r="190" fill="#C96FF6" fill-opacity="0.7"/>
<circle cx="240" cy="292.166" r="187.5" stroke="white" stroke-opacity="0.5" stroke-width="5"/>
<g filter="url(#filter1_f_24_47)">
<circle cx="240" cy="292.166" r="190" fill="#C96FF6" fill-opacity="0.7"/>
<circle cx="240" cy="292.166" r="187.5" stroke="white" stroke-opacity="0.5" stroke-width="5"/>
</g>
<g filter="url(#filter2_f_24_47)">
<circle cx="240" cy="292.166" r="190" fill="#C96FF6" fill-opacity="0.7"/>
<circle cx="240" cy="292.166" r="187.5" stroke="white" stroke-opacity="0.5" stroke-width="5"/>
</g>
<g filter="url(#filter3_f_24_47)">
<circle cx="240" cy="292.166" r="190" fill="#C96FF6" fill-opacity="0.7"/>
<circle cx="240" cy="292.166" r="187.5" stroke="white" stroke-opacity="0.5" stroke-width="5"/>
</g>
<g filter="url(#filter4_d_24_47)">
<rect x="155.204" y="168.166" width="212.319" height="212.319" rx="20" transform="rotate(10.6405 155.204 168.166)" fill="#2D002E" fill-opacity="0.5"/>
<rect x="133.777" y="185.942" width="212.319" height="212.319" rx="20" fill="#2D002E"/>
<path d="M169.842 271.633C169.362 271.633 168.93 271.465 168.546 271.129C168.21 270.745 168.042 270.313 168.042 269.833V223.033C168.042 222.505 168.21 222.073 168.546 221.737C168.93 221.401 169.362 221.233 169.842 221.233H203.466C203.994 221.233 204.426 221.401 204.762 221.737C205.098 222.073 205.266 222.505 205.266 223.033V229.801C205.266 230.281 205.098 230.713 204.762 231.097C204.426 231.433 203.994 231.601 203.466 231.601H180.498V241.321H201.882C202.41 241.321 202.842 241.513 203.178 241.897C203.514 242.233 203.682 242.665 203.682 243.193V249.457C203.682 249.937 203.514 250.369 203.178 250.753C202.842 251.089 202.41 251.257 201.882 251.257H180.498V261.265H204.042C204.57 261.265 205.002 261.433 205.338 261.769C205.674 262.105 205.842 262.537 205.842 263.065V269.833C205.842 270.313 205.674 270.745 205.338 271.129C205.002 271.465 204.57 271.633 204.042 271.633H169.842Z" fill="white"/>
</g>
<circle cx="364" cy="88.1658" r="66" transform="rotate(64.1635 364 88.1658)" fill="url(#paint1_linear_24_47)"/>
<circle cx="405.064" cy="477.23" r="31.9147" transform="rotate(159.519 405.064 477.23)" fill="url(#paint2_linear_24_47)"/>
<circle cx="44.1986" cy="168.364" r="25.2911" transform="rotate(87.9053 44.1986 168.364)" fill="url(#paint3_linear_24_47)"/>
<circle cx="88.8203" cy="480.986" r="43.2677" transform="rotate(87.9053 88.8203 480.986)" fill="url(#paint4_linear_24_47)"/>
<defs>
<filter id="filter0_d_24_47" x="1" y="57.1658" width="477" height="477" filterUnits="userSpaceOnUse" color-interpolation-filters="sRGB">
<feFlood flood-opacity="0" result="BackgroundImageFix"/>
<feColorMatrix in="SourceAlpha" type="matrix" values="0 0 0 0 0 0 0 0 0 0 0 0 0 0 0 0 0 0 127 0" result="hardAlpha"/>
<feOffset dy="4"/>
<feGaussianBlur stdDeviation="2"/>
<feComposite in2="hardAlpha" operator="out"/>
<feColorMatrix type="matrix" values="0 0 0 0 0 0 0 0 0 0 0 0 0 0 0 0 0 0 0.25 0"/>
<feBlend mode="normal" in2="BackgroundImageFix" result="effect1_dropShadow_24_47"/>
<feBlend mode="normal" in="SourceGraphic" in2="effect1_dropShadow_24_47" result="shape"/>
</filter>
<filter id="filter1_f_24_47" x="35" y="87.1658" width="410" height="410" filterUnits="userSpaceOnUse" color-interpolation-filters="sRGB">
<feFlood flood-opacity="0" result="BackgroundImageFix"/>
<feBlend mode="normal" in="SourceGraphic" in2="BackgroundImageFix" result="shape"/>
<feGaussianBlur stdDeviation="7.5" result="effect1_foregroundBlur_24_47"/>
</filter>
<filter id="filter2_f_24_47" x="25" y="77.1658" width="430" height="430" filterUnits="userSpaceOnUse" color-interpolation-filters="sRGB">
<feFlood flood-opacity="0" result="BackgroundImageFix"/>
<feBlend mode="normal" in="SourceGraphic" in2="BackgroundImageFix" result="shape"/>
<feGaussianBlur stdDeviation="12.5" result="effect1_foregroundBlur_24_47"/>
</filter>
<filter id="filter3_f_24_47" x="0" y="52.1658" width="480" height="480" filterUnits="userSpaceOnUse" color-interpolation-filters="sRGB">
<feFlood flood-opacity="0" result="BackgroundImageFix"/>
<feBlend mode="normal" in="SourceGraphic" in2="BackgroundImageFix" result="shape"/>
<feGaussianBlur stdDeviation="25" result="effect1_foregroundBlur_24_47"/>
</filter>
<filter id="filter4_d_24_47" x="110.345" y="171.511" width="250.181" height="249.181" filterUnits="userSpaceOnUse" color-interpolation-filters="sRGB">
<feFlood flood-opacity="0" result="BackgroundImageFix"/>
<feColorMatrix in="SourceAlpha" type="matrix" values="0 0 0 0 0 0 0 0 0 0 0 0 0 0 0 0 0 0 127 0" result="hardAlpha"/>
<feOffset dx="-5" dy="4"/>
<feGaussianBlur stdDeviation="2"/>
<feComposite in2="hardAlpha" operator="out"/>
<feColorMatrix type="matrix" values="0 0 0 0 0 0 0 0 0 0 0 0 0 0 0 0 0 0 0.25 0"/>
<feBlend mode="normal" in2="BackgroundImageFix" result="effect1_dropShadow_24_47"/>
<feBlend mode="normal" in="SourceGraphic" in2="effect1_dropShadow_24_47" result="shape"/>
</filter>
<linearGradient id="paint0_linear_24_47" x1="5" y1="256.666" x2="499.5" y2="279.666" gradientUnits="userSpaceOnUse">
<stop stop-color="#C089DC"/>
<stop offset="1" stop-color="#11001A" stop-opacity="0"/>
</linearGradient>
<linearGradient id="paint1_linear_24_47" x1="364" y1="60.1658" x2="359.628" y2="148.824" gradientUnits="userSpaceOnUse">
<stop stop-color="#CA71F5"/>
<stop offset="1" stop-color="#6E0D9C"/>
</linearGradient>
<linearGradient id="paint2_linear_24_47" x1="405.064" y1="463.69" x2="402.405" y2="523.221" gradientUnits="userSpaceOnUse">
<stop stop-color="#CA71F5"/>
<stop offset="1" stop-color="#6E0D9C"/>
</linearGradient>
<linearGradient id="paint3_linear_24_47" x1="44.1986" y1="157.635" x2="42.0913" y2="204.811" gradientUnits="userSpaceOnUse">
<stop stop-color="#B66FD8"/>
<stop offset="1" stop-color="#7E1DAC"/>
</linearGradient>
<linearGradient id="paint4_linear_24_47" x1="88.8203" y1="462.63" x2="85.2151" y2="543.338" gradientUnits="userSpaceOnUse">
<stop stop-color="#E2A9FE"/>
<stop offset="1" stop-color="#9837C7"/>
</linearGradient>
</defs>
</svg>
