<svg width="125" height="125" viewBox="0 0 125 125" fill="none" xmlns="http://www.w3.org/2000/svg">
<path d="M62.5 125C51.1882 125 40.7308 122.213 31.1279 116.638C21.5251 111.064 13.9364 103.475 8.36182 93.8721C2.78727 84.2692 0 73.8119 0 62.5C0 51.1882 2.78727 40.7308 8.36182 31.1279C13.9364 21.5251 21.5251 13.9364 31.1279 8.36182C40.7308 2.78727 51.1882 0 62.5 0C73.8119 0 84.2692 2.78727 93.8721 8.36182C103.475 13.9364 111.064 21.5251 116.638 31.1279C122.213 40.7308 125 51.1882 125 62.5C125 73.8119 122.213 84.2692 116.638 93.8721C111.064 103.475 103.475 111.064 93.8721 116.638C84.2692 122.213 73.8119 125 62.5 125ZM62.5 7.8125C55.0944 7.8125 48.0143 9.257 41.2598 12.146C34.5052 15.035 28.6865 18.9209 23.8037 23.8037C18.9209 28.6865 15.035 34.5052 12.146 41.2598C9.257 48.0143 7.8125 55.0944 7.8125 62.5C7.8125 69.9056 9.257 76.9857 12.146 83.7402C15.035 90.4948 18.9209 96.3135 23.8037 101.196C28.6865 106.079 34.5052 109.965 41.2598 112.854C48.0143 115.743 55.0944 117.188 62.5 117.188C69.9056 117.188 76.9857 115.743 83.7402 112.854C90.4948 109.965 96.3135 106.079 101.196 101.196C106.079 96.3135 109.965 90.4948 112.854 83.7402C115.743 76.9857 117.188 69.9056 117.188 62.5C117.188 55.0944 115.743 48.0143 112.854 41.2598C109.965 34.5052 106.079 28.6865 101.196 23.8037C96.3135 18.9209 90.4948 15.035 83.7402 12.146C76.9857 9.257 69.9056 7.8125 62.5 7.8125ZM85.4492 94.1162L77.5146 67.3828L99.6094 50.415C100.911 54.4027 101.562 58.431 101.562 62.5C101.562 68.8477 100.118 74.7884 97.229 80.3223C94.34 85.8561 90.4134 90.4541 85.4492 94.1162ZM71.7773 49.6826L62.5 23.4375C71.0449 23.4375 78.7354 25.9603 85.5713 31.0059C92.4072 36.0514 97.0866 42.5212 99.6094 50.415L71.7773 49.6826ZM25.3906 50.415C27.9134 42.5212 32.5928 36.0514 39.4287 31.0059C46.2646 25.9603 53.9551 23.4375 62.5 23.4375L53.2227 49.6826L25.3906 50.415ZM47.4854 67.3828L39.5508 94.1162C34.5866 90.4541 30.66 85.8561 27.771 80.3223C24.882 74.7884 23.4375 68.8477 23.4375 62.5C23.4375 58.431 24.0885 54.4027 25.3906 50.415L47.4854 67.3828ZM62.5 78.2471L85.4492 94.1162C78.6133 99.0804 70.9635 101.562 62.5 101.562C54.0365 101.562 46.3867 99.0804 39.5508 94.1162L62.5 78.2471Z" fill="white"/>
</svg>
